# xmcd
#
# Track frame offsets: 
#        150
#        23256
#        43468
#        66006
#        85093
#        114742
#        137494
#        154364
#        184004
#
# Disc length: 2760 seconds
#
# Revision: 4
# Processed by: cddbd v1.5.2PL0 Copyright (c) Steve Scherf et al.
# Submitted via: ExactAudioCopyFreeDBPlugin 1.0
#
DISCID=710ac609
DTITLE=Various Artist - Sunete indiene
DYEAR=2005
DGENRE=Indian
TTITLE0=Lata Mangeshkar - Kitne Ajeeb
TTITLE1=Chandra and David Courtney - Jayabheri
TTITLE2=Chandra and David Courtney - Nava Kavita
TTITLE3=Chandra and David Courtney - Tilana
TTITLE4=Adnan Sami - Mere Wajood
TTITLE5=Asha Bhosle and Abhijeet - Huzoor-E - Ala
TTITLE6=Lata Mangheshkar - Kitne Ajeeb (Sad Version)
TTITLE7=Sadhna Sargam - Mere Wajood
TTITLE8=Suresh Wadkar - Kitne Ajeeb
EXTD=Year: 2005\nGenre: Indian\nColectia RAMA - Calatorie muzicala in 
EXTD=jurul lumii\nSub licenta AFI Holland and ToCo International
EXTT0=
EXTT1=
EXTT2=
EXTT3=
EXTT4=
EXTT5=
EXTT6=
EXTT7=
EXTT8=
PLAYORDER=
